<svg version="1.1" viewBox="0 0 31.8 28" xmlns="http://www.w3.org/2000/svg"><g transform="translate(54.7 -15.1)"><path d="m-45.8 38.4c-5.24-4.71-8.89-10.8-8.93-14.9-0.0121-1.2 1.14-3.56 2.57-5.25 2.95-3.51 7.47-4.12 11.2-1.52 2.01 1.41 2.43 1.41 4.45 0 3.72-2.6 8.24-1.99 11.2 1.52 3.05 3.62 3.2 5.99 0.718 11.4-2.07 4.55-11.4 13.5-14.1 13.5-0.981 0-4.15-2.13-7.04-4.73z" fill="#f2a6b5"/><path d="m-44.7 35.5c-6.55-5.91-7.6-12.7-2.48-16.1 2.04-1.33 2.91-1.39 5.42-0.352 2.38 0.987 3.61 0.987 5.99 0 2.51-1.04 3.39-0.983 5.42 0.352 3.18 2.09 3.99 4.89 2.6 9.1-1.32 4.01-8.15 10.6-11 10.6-1.1 0-3.77-1.6-5.94-3.57z" fill="#e8576c"/><path d="m-43.6 32.6c-3.23-3.68-4-7.49-1.85-9.24 1.62-1.32 11.9-1.32 13.5 0 0.688 0.56 1.25 2.07 1.25 3.36 0 2.88-5.55 9.41-8 9.41-0.986 0-3.19-1.59-4.9-3.53z" fill="#dc2d43"/></g></svg>
