<?xml version="1.0" encoding="UTF-8" standalone="no"?>
<!-- Created with Inkscape (http://www.inkscape.org/) -->

<svg
   width="49.926651mm"
   height="41.862862mm"
   viewBox="0 0 49.926651 41.862862"
   version="1.1"
   id="svg1"
   inkscape:version="1.4.1-rc (d9e8dc1fe0, 2025-03-10)"
   sodipodi:docname="logo2.svg"
   xmlns:inkscape="http://www.inkscape.org/namespaces/inkscape"
   xmlns:sodipodi="http://sodipodi.sourceforge.net/DTD/sodipodi-0.dtd"
   xmlns="http://www.w3.org/2000/svg"
   xmlns:svg="http://www.w3.org/2000/svg">
  <sodipodi:namedview
     id="namedview1"
     pagecolor="#ffffff"
     bordercolor="#000000"
     borderopacity="0.25"
     inkscape:showpageshadow="2"
     inkscape:pageopacity="0.0"
     inkscape:pagecheckerboard="0"
     inkscape:deskcolor="#d1d1d1"
     inkscape:document-units="mm"
     inkscape:zoom="2.6924971"
     inkscape:cx="108.07811"
     inkscape:cy="128.69095"
     inkscape:window-width="1854"
     inkscape:window-height="1011"
     inkscape:window-x="0"
     inkscape:window-y="0"
     inkscape:window-maximized="1"
     inkscape:current-layer="layer1" />
  <defs
     id="defs1">
    <rect
       x="159.36145"
       y="198.50285"
       width="285.17313"
       height="205.4924"
       id="rect1" />
    <rect
       x="159.36145"
       y="198.50285"
       width="285.17313"
       height="205.4924"
       id="rect1-8" />
  </defs>
  <g
     inkscape:label="Layer 1"
     inkscape:groupmode="layer"
     id="layer1"
     transform="translate(-42.83014,-53.714107)">
    <path
       id="text1"
       style="font-size:12px;font-family:'Apple Garamond';-inkscape-font-specification:'Apple Garamond, Normal';white-space:pre;fill:#dc2d43"
       transform="matrix(4.7658064,0,0,4.7658064,-718.02755,-903.19105)"
       d="m 164.16133,201.82955 q 0,-0.24 0.012,-0.444 0.024,-0.204 0.024,-0.372 0,-0.108 -0.024,-0.168 -0.024,-0.06 -0.12,-0.06 -0.06,0 -0.264,0.144 -0.192,0.132 -0.612,0.288 -0.228,0.084 -0.396,0.132 -0.156,0.036 -0.156,0.168 0,0.072 0.084,0.108 0.084,0.036 0.18,0.084 0.096,0.036 0.18,0.108 0.084,0.072 0.084,0.228 v 1.584 q 0,0.18 -0.072,0.18 h -0.024 l -0.156,-0.06 q -0.132,-0.048 -0.348,-0.084 -0.216,-0.048 -0.456,-0.048 -0.504,0 -0.948,0.216 -0.444,0.216 -0.78,0.612 -0.324,0.384 -0.528,0.936 -0.192,0.54 -0.192,1.188 0,0.636 0.168,1.152 0.18,0.504 0.48,0.864 0.312,0.36 0.708,0.552 0.396,0.204 0.852,0.204 0.3,0 0.528,-0.084 0.228,-0.084 0.384,-0.18 0.168,-0.108 0.264,-0.192 0.096,-0.084 0.12,-0.084 0.036,0 0.06,0.084 0.024,0.072 0.048,0.18 0.024,0.096 0.06,0.168 0.048,0.084 0.108,0.084 0.096,0 0.348,-0.156 0.264,-0.156 0.708,-0.312 0.132,-0.048 0.216,-0.096 0.084,-0.06 0.084,-0.264 0,-0.096 -0.036,-0.144 -0.036,-0.06 -0.06,-0.06 -0.06,0 -0.156,0.12 -0.084,0.108 -0.204,0.108 -0.168,0 -0.168,-0.48 z m -1.008,3.936 v 2.028 q 0,0.24 -0.012,0.42 -0.012,0.18 -0.084,0.312 -0.072,0.132 -0.216,0.204 -0.144,0.06 -0.396,0.06 -0.792,0 -1.248,-0.588 -0.456,-0.6 -0.456,-1.668 0,-0.588 0.12,-1.068 0.12,-0.48 0.324,-0.804 0.216,-0.336 0.48,-0.516 0.276,-0.18 0.588,-0.18 0.324,0 0.504,0.132 0.18,0.12 0.264,0.36 0.096,0.228 0.108,0.564 0.024,0.324 0.024,0.744 z m 3.432,-3.936 q 0,-0.24 0.012,-0.432 0.012,-0.204 0.012,-0.384 0,-0.108 -0.024,-0.168 -0.024,-0.06 -0.12,-0.06 -0.06,0 -0.264,0.144 -0.192,0.132 -0.612,0.288 -0.228,0.084 -0.396,0.132 -0.156,0.036 -0.156,0.168 0,0.072 0.084,0.108 0.084,0.036 0.18,0.084 0.108,0.036 0.192,0.108 0.084,0.072 0.084,0.228 v 5.712 q 0,0.492 -0.048,0.9 -0.048,0.396 -0.048,0.684 0,0.228 0.132,0.228 0.072,0 0.132,-0.096 0.072,-0.096 0.132,-0.216 0.06,-0.12 0.12,-0.216 0.072,-0.096 0.168,-0.096 0.084,0 0.204,0.06 0.132,0.06 0.312,0.132 0.18,0.084 0.42,0.144 0.24,0.06 0.564,0.06 0.54,0 0.984,-0.228 0.456,-0.216 0.78,-0.612 0.336,-0.396 0.516,-0.948 0.18,-0.552 0.18,-1.224 0,-0.612 -0.156,-1.116 -0.156,-0.504 -0.42,-0.852 -0.264,-0.36 -0.624,-0.552 -0.36,-0.192 -0.756,-0.192 -0.396,0 -0.696,0.168 -0.288,0.156 -0.624,0.504 l -0.144,0.144 q -0.06,0.06 -0.096,0.06 -0.024,0 -0.024,-0.072 z m 0,6.024 v -1.764 q 0,-0.372 0.012,-0.672 0.024,-0.312 0.12,-0.528 0.096,-0.216 0.288,-0.336 0.192,-0.12 0.54,-0.12 0.684,0 1.128,0.588 0.456,0.576 0.456,1.656 0,0.504 -0.12,0.936 -0.108,0.42 -0.324,0.732 -0.204,0.3 -0.492,0.468 -0.288,0.168 -0.636,0.168 -0.456,0 -0.72,-0.276 -0.252,-0.276 -0.252,-0.852 z" />
    <text
       xml:space="preserve"
       transform="matrix(-4.7658064,0,0,4.7658064,824.297,-903.96396)"
       id="text1-1"
       style="font-family:'Apple Garamond';-inkscape-font-specification:'Apple Garamond';text-align:start;writing-mode:lr-tb;direction:ltr;white-space:pre;shape-inside:url(#rect1-8);display:inline;fill:#dc2d43" />
  </g>
</svg>
